<?xml version="1.0" standalone="no"?>
<!DOCTYPE svg PUBLIC "-//W3C//DTD SVG 20010904//EN"
 "http://www.w3.org/TR/2001/REC-SVG-20010904/DTD/svg10.dtd">
<svg version="1.0" xmlns="http://www.w3.org/2000/svg"
 width="1400.000000pt" height="1400.000000pt" viewBox="0 0 1400.000000 1400.000000"
 preserveAspectRatio="xMidYMid meet">

<g transform="translate(0.000000,1400.000000) scale(0.100000,-0.100000)"
fill="#25D366" stroke="none">
<path d="M6748 13982 c-8 -31 -97 -44 -348 -51 -204 -6 -240 -9 -270 -26 -27
-15 -64 -20 -160 -24 -100 -5 -132 -10 -154 -25 -22 -14 -52 -19 -129 -21 -84
-3 -103 -7 -121 -24 -18 -17 -35 -21 -87 -21 -49 0 -75 -6 -111 -25 -34 -18
-62 -25 -104 -25 -46 0 -63 -5 -81 -22 -18 -17 -37 -22 -83 -23 -46 -1 -65 -6
-83 -23 -17 -16 -36 -22 -68 -22 -32 0 -55 -7 -79 -25 -23 -17 -47 -25 -75
-25 -28 0 -48 -7 -64 -21 -14 -13 -38 -22 -62 -23 -22 -1 -52 -12 -69 -24 -17
-13 -44 -22 -64 -22 -24 0 -43 -8 -60 -25 -17 -17 -36 -25 -60 -25 -24 0 -44
-8 -63 -26 -18 -17 -35 -24 -51 -21 -16 3 -32 -4 -49 -19 -14 -13 -37 -24 -51
-24 -13 0 -37 -11 -54 -25 -16 -14 -40 -25 -52 -25 -13 0 -34 -8 -47 -19 -13
-10 -41 -23 -61 -30 -20 -7 -42 -18 -48 -26 -6 -7 -26 -17 -43 -20 -18 -4 -39
-13 -47 -20 -8 -7 -31 -20 -50 -29 -35 -16 -45 -21 -111 -63 -19 -13 -44 -23
-56 -23 -11 0 -27 -10 -35 -21 -7 -12 -26 -23 -41 -24 -16 -2 -39 -15 -52 -29
-13 -14 -33 -26 -43 -26 -10 0 -27 -9 -37 -20 -10 -11 -22 -20 -27 -20 -5 0
-20 -11 -34 -25 -14 -14 -34 -25 -46 -25 -11 0 -31 -10 -44 -22 -41 -42 -82
-68 -103 -68 -12 0 -24 -7 -28 -15 -6 -19 -86 -75 -105 -75 -7 0 -31 -19 -53
-41 -22 -23 -54 -47 -71 -55 -17 -7 -36 -20 -44 -28 -7 -9 -17 -16 -22 -16 -5
0 -33 -22 -61 -50 -28 -27 -57 -50 -64 -50 -7 0 -21 -9 -30 -20 -10 -11 -23
-20 -30 -20 -7 0 -46 -33 -86 -72 -40 -40 -88 -84 -107 -98 -18 -14 -43 -35
-55 -47 -12 -13 -27 -23 -33 -23 -6 0 -16 -9 -22 -20 -6 -11 -16 -20 -24 -20
-7 0 -22 -11 -34 -25 -12 -14 -26 -25 -31 -25 -5 0 -11 -9 -14 -20 -3 -11 -12
-20 -20 -20 -9 0 -18 -9 -22 -19 -3 -11 -15 -23 -26 -26 -10 -4 -19 -10 -19
-15 0 -6 -26 -34 -132 -137 -7 -7 -18 -18 -24 -24 -6 -6 -28 -27 -48 -46 -20
-19 -36 -39 -36 -43 0 -5 -9 -12 -20 -15 -11 -3 -20 -13 -20 -20 0 -8 -11 -22
-25 -31 -14 -9 -25 -22 -25 -30 0 -7 -9 -18 -20 -24 -11 -6 -20 -17 -20 -25 0
-8 -9 -19 -20 -25 -11 -6 -20 -16 -20 -22 0 -11 -6 -19 -100 -115 -27 -29 -50
-57 -50 -62 0 -6 -8 -15 -19 -20 -10 -6 -22 -22 -25 -36 -4 -14 -11 -25 -16
-25 -5 0 -16 -12 -24 -27 -8 -16 -35 -49 -60 -74 -25 -26 -46 -53 -46 -61 0
-7 -9 -21 -20 -31 -11 -9 -20 -23 -20 -32 0 -8 -11 -22 -25 -31 -14 -9 -25
-22 -25 -30 0 -8 -9 -19 -20 -26 -11 -7 -20 -23 -20 -35 0 -12 -8 -28 -18 -35
-11 -7 -25 -24 -32 -38 -7 -14 -21 -31 -32 -38 -10 -7 -18 -24 -18 -37 0 -14
-8 -29 -19 -35 -11 -5 -23 -20 -27 -32 -4 -13 -15 -29 -25 -36 -11 -7 -19 -24
-19 -36 0 -14 -10 -30 -25 -40 -16 -10 -25 -26 -25 -42 0 -13 -7 -27 -15 -30
-8 -3 -19 -21 -25 -40 -7 -19 -20 -39 -31 -44 -12 -7 -19 -21 -19 -39 0 -20
-8 -34 -25 -45 -17 -11 -25 -26 -25 -45 0 -20 -8 -34 -25 -45 -17 -11 -25 -26
-25 -46 0 -19 -7 -33 -20 -40 -13 -7 -20 -21 -20 -40 0 -20 -9 -38 -25 -52
-14 -12 -25 -32 -25 -46 0 -14 -11 -35 -25 -48 -16 -15 -25 -34 -25 -53 0 -20
-7 -34 -20 -41 -14 -8 -20 -21 -20 -45 0 -25 -7 -41 -25 -57 -17 -14 -25 -32
-25 -53 0 -19 -8 -39 -19 -49 -10 -9 -22 -37 -25 -60 -4 -24 -16 -52 -26 -61
-13 -11 -20 -31 -20 -53 0 -22 -9 -45 -25 -64 -17 -20 -25 -42 -25 -68 0 -26
-6 -43 -19 -52 -12 -9 -20 -30 -23 -68 -4 -41 -11 -58 -27 -68 -17 -12 -21
-24 -21 -67 0 -42 -5 -57 -25 -79 -20 -22 -25 -37 -25 -78 0 -39 -5 -57 -22
-75 -17 -19 -22 -36 -23 -89 -1 -53 -5 -69 -20 -80 -16 -12 -21 -31 -25 -93
-5 -59 -12 -85 -28 -106 -18 -23 -22 -41 -22 -107 0 -66 -4 -84 -22 -109 -20
-27 -23 -43 -23 -127 0 -81 -4 -103 -22 -132 -18 -30 -22 -54 -25 -180 -3
-120 -7 -151 -23 -180 -19 -34 -20 -59 -20 -735 l0 -700 23 -58 c18 -48 22
-77 22 -177 0 -104 3 -125 22 -162 19 -36 23 -59 23 -140 0 -84 3 -100 22
-127 19 -25 23 -43 23 -109 0 -68 3 -83 25 -112 21 -28 25 -45 25 -102 0 -57
4 -70 22 -88 18 -17 22 -32 23 -85 1 -52 6 -69 23 -88 17 -18 22 -36 22 -75 0
-41 5 -56 25 -78 20 -22 25 -37 25 -79 0 -43 4 -55 21 -67 16 -10 23 -27 26
-65 4 -33 12 -58 24 -69 12 -11 19 -31 19 -55 0 -25 8 -47 25 -67 16 -19 25
-42 25 -64 0 -22 7 -42 20 -53 10 -9 22 -37 26 -62 4 -27 14 -49 25 -56 13 -8
19 -23 19 -49 0 -29 6 -41 25 -54 18 -12 25 -25 25 -49 0 -19 8 -39 20 -50 11
-10 20 -31 20 -47 0 -18 9 -38 25 -52 14 -13 25 -34 25 -48 0 -14 11 -34 25
-46 16 -14 25 -32 25 -52 0 -19 7 -33 20 -40 13 -7 20 -21 20 -40 0 -20 8 -35
25 -46 17 -11 25 -25 25 -45 0 -19 8 -34 25 -45 15 -10 25 -26 25 -40 0 -13 9
-32 20 -41 11 -10 20 -23 20 -29 0 -7 11 -26 25 -42 14 -17 25 -39 25 -50 0
-11 11 -27 25 -36 15 -10 25 -26 25 -41 0 -13 8 -30 19 -37 10 -7 21 -23 25
-36 4 -12 16 -27 27 -32 10 -6 19 -21 19 -33 0 -11 9 -30 20 -42 49 -50 80
-94 80 -113 0 -11 7 -22 15 -26 8 -3 20 -17 25 -31 5 -14 14 -25 19 -25 11 0
71 -85 71 -100 0 -5 21 -31 46 -57 25 -27 52 -60 60 -75 8 -16 19 -28 24 -28
5 0 12 -10 16 -22 4 -13 15 -29 25 -36 11 -7 19 -17 19 -22 0 -5 34 -44 75
-87 41 -42 75 -83 75 -90 0 -7 9 -17 20 -23 11 -6 20 -17 20 -25 0 -8 9 -19
20 -25 11 -6 20 -17 20 -24 0 -8 11 -21 25 -30 14 -9 25 -23 25 -31 0 -7 9
-17 20 -20 11 -3 20 -13 20 -21 0 -8 11 -20 25 -26 14 -6 25 -17 25 -24 0 -7
9 -15 19 -19 11 -3 23 -15 26 -25 3 -10 15 -22 25 -25 10 -3 22 -15 25 -25 3
-10 15 -22 26 -25 10 -4 19 -12 19 -20 0 -8 9 -16 19 -20 11 -3 23 -15 26 -25
3 -10 15 -22 26 -25 10 -4 19 -13 19 -21 0 -8 11 -19 25 -24 14 -5 25 -16 25
-25 0 -8 5 -15 10 -15 6 0 20 -11 32 -25 12 -14 26 -25 32 -25 6 0 17 -9 24
-20 7 -11 17 -20 23 -20 7 0 22 -10 34 -23 12 -12 37 -33 56 -47 19 -14 67
-58 107 -98 41 -39 78 -72 82 -72 15 0 96 -58 136 -98 21 -21 47 -41 57 -45 9
-3 17 -11 17 -16 0 -5 15 -14 33 -20 18 -6 53 -31 78 -56 24 -25 50 -45 57
-45 19 0 99 -56 105 -75 4 -8 16 -15 28 -15 21 0 62 -26 103 -67 13 -13 33
-23 45 -23 11 0 31 -11 43 -25 12 -14 27 -25 34 -25 7 0 21 -8 31 -19 10 -10
30 -21 45 -25 15 -3 32 -15 38 -26 6 -12 21 -20 36 -20 14 0 36 -11 50 -25 14
-14 33 -25 43 -25 9 0 32 -11 51 -25 19 -14 41 -25 50 -25 9 0 25 -9 35 -20
10 -11 24 -20 30 -20 7 0 23 -8 36 -18 13 -11 38 -22 54 -26 17 -4 39 -16 50
-25 11 -10 33 -22 49 -25 17 -4 42 -16 57 -27 15 -10 36 -19 47 -19 11 0 34
-11 50 -25 17 -14 41 -25 54 -25 14 0 37 -11 51 -24 17 -15 33 -22 49 -19 16
3 33 -4 51 -21 19 -18 39 -26 63 -26 24 0 43 -8 60 -25 17 -17 36 -25 59 -25
20 0 50 -10 71 -25 27 -18 46 -24 64 -20 19 4 34 -1 56 -20 21 -18 41 -25 70
-25 27 0 51 -8 74 -25 25 -18 46 -25 80 -25 33 0 54 -6 70 -20 26 -22 27 -23
92 -24 34 -1 53 -8 70 -24 19 -17 36 -22 81 -22 40 0 69 -7 103 -25 36 -19 62
-25 112 -25 53 0 70 -4 88 -21 18 -17 37 -21 121 -24 77 -2 107 -7 129 -21 22
-15 54 -20 154 -25 96 -4 133 -9 160 -24 30 -17 66 -20 270 -26 251 -7 340
-20 348 -51 4 -17 22 -18 257 -18 245 0 253 1 266 21 21 31 79 39 339 47 205
7 239 10 270 27 28 15 60 20 155 23 100 2 127 6 160 25 32 17 57 21 127 22 74
0 91 4 117 23 25 18 43 22 104 22 62 0 78 4 107 25 28 20 45 25 97 25 51 0 66
4 82 21 16 17 33 22 80 23 47 2 66 7 84 24 18 17 35 22 74 22 40 0 56 5 77 25
21 19 38 25 73 25 33 0 53 6 68 20 12 11 41 23 66 26 24 3 53 15 65 25 11 11
35 19 53 19 19 0 46 10 65 25 21 16 46 25 69 25 26 0 41 6 49 20 8 13 24 20
44 20 19 0 39 9 53 24 13 14 38 26 61 29 22 3 51 14 66 26 15 12 34 21 43 21
10 0 32 11 51 25 19 14 46 25 62 25 17 0 31 7 38 20 7 13 21 20 40 20 20 0 38
9 52 25 12 14 31 25 43 25 12 0 34 11 49 25 15 14 35 25 45 25 10 0 26 9 36
20 10 11 24 20 30 20 7 0 24 9 38 20 14 11 32 20 41 20 9 0 30 13 47 30 18 16
36 27 40 24 14 -8 49 6 49 20 0 7 18 21 40 31 22 10 40 22 40 27 0 4 9 8 20 8
11 0 32 13 47 30 14 16 32 30 40 30 15 0 61 30 103 66 14 12 35 25 48 29 12 3
22 10 22 14 0 5 14 14 30 21 17 7 30 16 30 21 0 9 87 69 100 69 5 0 35 25 67
55 32 30 66 57 76 61 9 3 17 9 17 14 0 4 11 11 25 14 14 4 51 32 83 64 66 67
146 132 161 132 6 0 15 9 21 20 6 11 17 20 26 20 8 0 17 7 21 16 3 8 16 20 29
25 13 4 24 15 24 24 0 8 4 15 8 15 8 0 486 474 500 496 4 6 17 16 30 23 12 6
22 18 22 26 0 8 9 19 20 25 11 6 20 17 20 25 0 8 9 19 20 25 11 6 20 15 20 21
0 16 37 62 98 123 28 29 52 57 52 62 0 5 9 15 20 22 11 7 20 19 20 27 0 8 9
23 20 32 11 10 20 22 20 28 0 5 23 33 50 62 28 29 50 57 50 64 0 14 36 63 73
97 15 15 27 34 27 44 0 9 9 22 20 28 11 6 20 21 20 34 0 14 10 30 25 40 14 9
25 22 25 30 0 7 8 21 19 30 10 9 21 30 24 45 4 17 14 31 26 34 12 3 21 13 21
24 0 11 11 34 25 53 14 19 25 40 25 47 0 7 9 17 20 23 11 6 20 21 20 35 0 24
23 55 41 55 5 0 9 11 9 24 0 14 11 38 25 54 14 17 25 36 25 44 0 8 9 23 20 33
11 10 20 28 20 40 0 12 11 32 25 45 15 14 25 35 25 51 0 18 7 32 20 39 11 6
22 26 26 48 4 20 15 43 26 50 10 8 18 25 18 43 0 19 9 37 25 51 16 14 25 32
25 51 0 16 11 42 25 59 14 16 25 42 25 57 0 17 10 36 26 50 20 18 24 28 19 51
-5 23 -1 33 19 51 20 17 26 32 26 61 0 28 6 44 25 60 19 16 25 31 25 62 0 27
7 47 21 62 15 16 22 37 23 70 1 36 6 50 24 62 18 12 22 24 22 62 0 37 6 56 25
78 20 24 25 41 25 85 0 45 4 57 23 70 19 12 22 22 20 69 -2 45 2 61 22 88 20
27 25 46 25 95 0 49 5 68 25 95 22 29 25 44 25 111 0 64 4 81 22 105 20 24 23
40 23 118 0 77 4 97 23 127 19 32 22 50 22 145 0 90 4 121 25 179 23 65 25 84
25 265 1 107 6 233 12 280 5 47 9 119 8 161 -1 61 2 80 18 99 18 23 19 26 3
49 -12 19 -16 51 -17 127 -1 56 -5 107 -9 114 -4 7 -11 136 -15 289 -6 253 -9
280 -29 323 -18 40 -21 63 -20 158 1 99 -1 114 -22 148 -20 31 -23 51 -24 129
0 79 -3 96 -22 122 -19 25 -23 43 -23 104 0 62 -4 78 -25 107 -21 28 -25 45
-25 99 0 53 -4 69 -22 89 -18 19 -23 36 -23 82 -1 47 -5 64 -23 83 -17 18 -22
35 -22 75 0 41 -5 56 -25 78 -19 21 -25 38 -25 74 0 37 -5 51 -26 71 -18 17
-24 31 -21 48 6 31 -10 78 -29 85 -9 3 -14 20 -14 49 0 34 -5 48 -25 65 -19
16 -25 32 -25 60 0 28 -7 45 -25 62 -20 19 -24 30 -20 52 5 21 1 33 -19 51
-15 14 -26 35 -26 50 0 14 -11 39 -25 55 -14 17 -25 43 -25 59 0 19 -9 38 -25
53 -17 16 -25 34 -25 56 0 24 -5 34 -20 39 -15 5 -20 15 -20 40 0 26 -6 39
-25 51 -16 10 -25 26 -25 41 0 14 -11 38 -25 55 -14 16 -25 38 -25 49 0 10 -9
24 -20 31 -11 7 -20 22 -20 34 0 12 -11 33 -25 48 -14 15 -25 38 -25 52 0 13
-4 24 -9 24 -18 0 -41 31 -41 55 0 14 -9 29 -20 35 -11 6 -20 17 -20 24 0 7
-9 24 -19 38 -11 13 -23 36 -26 51 -4 14 -18 33 -31 42 -13 9 -24 25 -24 38 0
12 -9 28 -20 35 -11 7 -20 18 -20 25 0 8 -11 24 -25 37 -14 13 -25 32 -25 42
0 10 -9 23 -20 30 -11 7 -20 21 -20 31 0 10 -7 20 -15 23 -15 6 -85 103 -85
118 0 4 -22 30 -50 59 -27 29 -50 57 -50 62 0 6 -9 18 -20 28 -11 9 -20 24
-20 32 0 8 -9 20 -20 27 -11 7 -20 17 -20 22 0 5 -24 33 -52 62 -61 61 -98
107 -98 123 0 6 -9 15 -20 21 -11 6 -20 16 -20 22 0 6 -10 21 -22 34 -13 12
-27 27 -33 33 -5 6 -28 28 -50 49 -22 21 -54 54 -71 73 -17 19 -120 121 -228
228 -108 107 -196 198 -196 203 0 5 -8 12 -17 15 -10 4 -28 16 -40 27 -51 49
-60 56 -68 56 -11 0 -117 91 -172 147 -24 24 -49 43 -56 43 -7 0 -23 8 -36 18
-53 40 -117 96 -129 114 -7 10 -19 18 -27 18 -14 0 -76 39 -105 65 -35 34 -79
65 -90 65 -11 0 -56 34 -101 75 -9 8 -24 15 -34 15 -9 0 -33 14 -52 30 -18 17
-40 30 -48 30 -8 0 -15 4 -15 9 0 5 -15 15 -34 21 -19 6 -42 22 -50 36 -10 14
-26 24 -40 24 -13 0 -29 7 -37 16 -7 9 -45 31 -85 51 -40 19 -75 41 -78 49 -3
8 -17 14 -30 14 -14 0 -37 11 -52 25 -15 14 -37 25 -49 25 -12 0 -31 11 -43
25 -14 16 -32 25 -52 25 -19 0 -33 7 -40 20 -7 13 -21 20 -40 20 -17 0 -40 10
-56 25 -15 14 -37 25 -49 25 -12 0 -34 9 -47 20 -14 10 -44 24 -68 29 -23 5
-52 19 -64 30 -12 12 -36 21 -52 21 -18 0 -34 7 -42 20 -8 14 -23 20 -49 20
-23 0 -48 9 -69 25 -20 15 -46 25 -67 25 -23 0 -39 7 -48 19 -9 13 -31 21 -63
25 -29 3 -58 13 -71 26 -15 14 -35 20 -68 20 -35 0 -52 6 -73 25 -21 20 -37
25 -77 25 -39 0 -56 5 -74 22 -18 17 -37 22 -84 24 -46 1 -65 6 -82 23 -19 17
-36 21 -83 21 -48 0 -67 5 -94 25 -29 21 -45 25 -109 25 -64 0 -78 3 -98 22
-21 20 -35 23 -116 23 -75 0 -99 4 -132 22 -33 19 -60 23 -160 25 -96 3 -127
8 -155 23 -30 17 -65 20 -265 27 -264 8 -323 16 -343 47 -14 20 -21 21 -267
21 -235 0 -253 -1 -257 -18z m727 -2795 c39 -8 106 -18 150 -21 44 -4 113 -16
154 -27 41 -10 86 -19 100 -19 14 0 58 -9 96 -20 39 -11 97 -27 130 -35 116
-31 191 -54 275 -85 47 -17 103 -37 125 -45 38 -13 104 -40 170 -69 161 -73
255 -119 340 -167 28 -15 61 -34 75 -41 14 -7 55 -32 93 -55 37 -24 70 -43 73
-43 3 0 18 -9 32 -21 15 -11 50 -35 77 -52 51 -32 95 -64 223 -164 86 -68 71
-55 192 -160 188 -162 453 -449 570 -618 14 -19 34 -46 45 -59 25 -31 53 -71
117 -171 28 -44 61 -96 73 -115 29 -45 103 -176 121 -215 7 -16 18 -37 24 -45
5 -8 16 -31 25 -50 8 -19 18 -42 23 -50 5 -8 20 -40 34 -70 14 -30 34 -75 46
-100 12 -25 28 -63 36 -85 8 -22 26 -71 41 -110 15 -38 35 -97 45 -130 10 -33
25 -78 34 -100 8 -22 15 -48 16 -58 0 -10 9 -46 20 -80 25 -79 48 -175 62
-252 5 -33 18 -98 28 -145 11 -47 24 -148 30 -225 6 -77 15 -171 20 -210 12
-92 12 -402 0 -487 -5 -36 -14 -131 -20 -210 -6 -79 -17 -170 -25 -203 -8 -33
-19 -92 -25 -130 -5 -39 -16 -89 -24 -112 -8 -23 -17 -63 -21 -90 -4 -26 -15
-70 -25 -98 -10 -27 -21 -67 -25 -87 -3 -21 -15 -57 -25 -80 -11 -24 -20 -52
-20 -63 0 -11 -8 -36 -19 -55 -10 -19 -22 -51 -26 -70 -4 -19 -16 -50 -26 -68
-10 -18 -19 -38 -19 -44 0 -7 -9 -32 -21 -57 -12 -25 -32 -71 -46 -101 -40
-87 -132 -270 -164 -325 -16 -27 -38 -66 -49 -85 -22 -39 -55 -92 -84 -136
-11 -16 -34 -51 -53 -79 -68 -103 -102 -150 -196 -269 -177 -225 -393 -445
-622 -635 -55 -45 -109 -89 -120 -97 -11 -8 -37 -28 -59 -44 -47 -37 -195
-137 -245 -167 -20 -12 -52 -31 -71 -43 -94 -57 -118 -71 -155 -90 -22 -11
-73 -38 -114 -60 -41 -22 -79 -40 -85 -40 -6 0 -22 -9 -36 -20 -14 -11 -31
-20 -39 -20 -8 0 -37 -11 -65 -24 -80 -38 -172 -76 -184 -76 -7 0 -31 -9 -54
-19 -52 -24 -119 -46 -216 -71 -40 -11 -80 -24 -90 -29 -9 -5 -37 -12 -62 -16
-25 -4 -74 -15 -110 -25 -36 -10 -92 -22 -125 -25 -33 -4 -81 -13 -107 -20
-26 -8 -80 -17 -120 -20 -40 -4 -153 -15 -251 -26 -283 -32 -702 -16 -992 37
-44 8 -119 21 -167 30 -47 8 -101 20 -120 28 -18 8 -57 17 -87 21 -30 4 -72
16 -95 26 -23 10 -51 19 -64 19 -13 0 -44 9 -70 19 -26 11 -67 26 -92 34 -92
30 -264 99 -305 121 -16 9 -35 16 -42 16 -6 0 -53 21 -105 47 -160 80 -168 83
-204 83 -19 0 -45 -5 -57 -12 -12 -6 -56 -20 -97 -29 -150 -36 -206 -50 -255
-66 -27 -9 -77 -22 -110 -29 -33 -7 -78 -19 -100 -28 -22 -8 -52 -15 -67 -16
-15 0 -51 -9 -80 -19 -29 -11 -79 -24 -111 -30 -31 -6 -66 -15 -77 -21 -10 -6
-50 -17 -87 -24 -79 -17 -163 -39 -248 -66 -33 -10 -78 -21 -100 -25 -22 -4
-67 -15 -100 -26 -33 -10 -89 -26 -125 -34 -185 -45 -319 -80 -401 -105 -78
-24 -142 -26 -159 -5 -16 20 -5 108 26 204 13 40 24 81 24 91 0 9 11 49 25 88
14 39 25 80 25 89 0 10 9 45 20 78 23 73 47 159 66 243 8 35 21 79 28 96 8 18
17 53 21 77 4 24 15 64 25 89 9 25 21 67 25 95 4 27 13 61 20 75 7 14 19 55
25 90 6 35 17 76 25 90 7 14 16 45 19 70 4 25 15 70 26 100 10 30 25 82 33
115 18 72 32 123 62 230 34 120 45 172 45 208 0 41 -25 113 -50 145 -11 14
-20 32 -20 42 0 10 -9 29 -20 43 -11 14 -20 29 -20 33 0 4 -14 37 -31 73 -77
163 -119 263 -119 283 0 7 -6 23 -14 34 -8 11 -19 40 -26 64 -6 25 -19 68 -30
95 -35 95 -70 215 -70 237 0 13 -9 50 -19 83 -20 63 -47 188 -62 290 -49 336
-52 379 -52 670 0 298 14 466 60 705 9 47 22 119 29 160 7 41 19 93 27 115 8
22 17 62 21 88 4 26 16 67 26 90 11 23 20 52 20 64 0 13 11 51 24 85 13 35 29
79 36 98 40 113 49 138 64 165 9 17 16 36 16 43 0 7 9 30 19 50 11 20 57 112
103 204 108 216 124 247 143 268 8 9 15 20 15 25 0 5 20 38 43 74 92 139 92
140 139 207 15 21 36 50 45 64 127 183 474 546 693 726 180 147 396 304 419
304 4 0 16 9 26 20 10 11 27 22 39 26 11 3 28 12 36 19 20 17 150 86 295 158
190 93 265 127 340 152 22 8 78 28 125 45 84 31 159 54 275 85 33 8 92 24 130
34 39 11 92 22 118 26 27 4 65 12 86 19 20 8 70 17 111 21 41 3 116 13 165 21
50 7 104 15 120 18 17 2 194 3 395 1 276 -2 382 -6 435 -18z"/>
<path d="M6510 10424 c-41 -8 -122 -21 -178 -29 -57 -8 -111 -19 -121 -24 -9
-5 -46 -14 -81 -21 -36 -6 -87 -19 -115 -29 -78 -28 -146 -51 -197 -66 -25 -7
-57 -20 -69 -29 -13 -9 -30 -16 -37 -16 -13 0 -211 -91 -242 -111 -8 -5 -31
-17 -50 -27 -19 -9 -48 -26 -65 -36 -16 -11 -46 -29 -65 -41 -30 -19 -171
-112 -234 -155 -69 -46 -313 -259 -409 -355 -136 -137 -371 -416 -454 -542 -7
-10 -24 -34 -38 -53 -13 -19 -29 -45 -34 -57 -5 -11 -15 -24 -21 -28 -5 -3
-17 -21 -26 -38 -8 -18 -28 -54 -44 -82 -17 -27 -39 -68 -50 -90 -11 -22 -24
-47 -29 -55 -5 -8 -24 -46 -41 -85 -18 -38 -40 -86 -51 -106 -10 -20 -19 -42
-19 -49 0 -7 -9 -31 -19 -54 -23 -49 -46 -117 -71 -208 -11 -37 -23 -75 -29
-85 -5 -10 -14 -48 -21 -83 -6 -36 -17 -81 -24 -100 -8 -19 -17 -64 -20 -100
-4 -36 -17 -112 -29 -170 -19 -95 -21 -137 -21 -450 0 -312 2 -355 21 -450 12
-58 24 -134 28 -170 4 -35 13 -79 20 -98 8 -18 17 -57 21 -85 4 -29 15 -74 25
-102 9 -27 20 -66 24 -85 3 -19 14 -55 24 -80 10 -25 25 -65 33 -90 33 -95 41
-116 58 -155 10 -22 34 -76 53 -120 20 -44 58 -123 86 -175 28 -52 60 -113 71
-135 11 -22 34 -60 50 -85 68 -103 84 -181 59 -287 -11 -46 -26 -100 -82 -293
-24 -81 -34 -119 -58 -212 -6 -24 -22 -77 -35 -119 -13 -42 -24 -86 -24 -97 0
-12 -9 -45 -19 -74 -11 -29 -22 -69 -26 -88 -4 -19 -18 -70 -33 -113 -32 -99
-25 -110 50 -79 29 11 71 24 93 27 22 4 58 13 80 20 22 8 72 21 110 29 39 8
88 21 110 30 22 8 52 15 67 16 15 0 51 9 80 19 29 11 71 23 93 26 22 4 67 15
100 25 33 10 89 26 125 35 36 9 99 25 140 36 160 43 150 42 217 19 35 -12 91
-39 125 -60 67 -41 243 -131 343 -175 33 -15 78 -35 101 -46 23 -10 48 -19 55
-19 8 0 32 -9 53 -19 21 -11 52 -23 69 -26 18 -4 55 -15 82 -25 60 -22 147
-45 275 -70 52 -10 110 -23 128 -29 18 -5 86 -15 150 -21 64 -6 146 -16 182
-22 90 -17 567 -17 640 -1 30 7 96 17 145 23 84 9 185 29 330 66 33 8 85 21
115 29 62 15 131 38 205 67 28 11 65 24 83 28 18 4 43 15 57 24 13 9 30 16 36
16 12 0 130 52 159 71 8 5 22 12 30 16 48 20 80 36 125 62 28 16 60 34 73 40
12 6 35 19 50 29 15 11 68 46 117 78 50 32 95 62 100 66 6 5 44 34 85 65 81
61 173 135 206 168 11 11 56 54 100 96 162 155 284 297 402 462 77 109 79 113
142 217 11 19 32 53 45 75 13 22 33 58 44 80 12 22 25 47 30 55 5 8 16 29 24
45 7 17 18 39 24 50 24 47 63 133 63 141 0 5 12 32 25 59 14 28 25 57 25 65 0
8 7 28 15 43 8 16 19 47 25 70 6 23 20 63 30 89 11 26 20 56 20 68 0 11 9 46
20 77 11 31 23 80 26 107 3 28 13 74 21 101 8 28 21 106 28 175 8 69 19 163
25 210 13 110 13 381 0 490 -6 47 -17 144 -24 215 -8 72 -19 143 -25 159 -6
15 -16 59 -21 97 -5 37 -18 96 -29 131 -10 35 -24 83 -31 108 -30 115 -49 178
-63 210 -8 19 -21 55 -29 80 -30 88 -41 115 -58 155 -10 22 -30 67 -45 100
-39 88 -133 272 -171 335 -18 30 -38 65 -43 78 -6 12 -20 32 -31 44 -11 12
-20 26 -20 31 0 5 -10 22 -22 37 -13 16 -34 45 -48 65 -99 146 -356 426 -500
546 -84 71 -196 154 -269 202 -19 12 -46 30 -60 39 -14 10 -46 29 -71 43 -25
15 -63 37 -85 50 -57 34 -256 132 -284 140 -14 4 -38 16 -55 26 -17 11 -37 19
-45 19 -8 0 -32 9 -55 19 -23 11 -61 26 -86 34 -25 8 -58 19 -75 25 -80 29
-192 62 -208 62 -9 0 -43 9 -74 19 -32 11 -80 23 -108 26 -27 4 -77 15 -110
25 -33 9 -96 21 -140 25 -44 4 -109 14 -145 22 -95 23 -773 28 -880 7z m-668
-1454 c44 -13 120 -85 138 -132 7 -18 23 -55 35 -83 12 -27 32 -75 45 -105 12
-30 33 -78 46 -105 13 -28 24 -57 24 -65 0 -8 9 -28 20 -45 11 -16 20 -37 20
-46 0 -9 11 -37 25 -63 14 -26 25 -53 25 -59 0 -7 8 -28 19 -47 10 -19 23 -51
30 -71 6 -20 20 -53 31 -74 11 -22 20 -44 20 -50 0 -6 9 -28 20 -50 27 -52 25
-109 -5 -170 -13 -27 -25 -53 -25 -57 -1 -25 -118 -178 -228 -298 -54 -59 -69
-102 -57 -162 7 -33 16 -49 91 -162 21 -32 44 -66 49 -75 21 -35 130 -175 198
-255 100 -117 327 -330 427 -399 161 -111 172 -118 270 -176 19 -12 42 -25 50
-30 8 -6 29 -16 45 -24 17 -7 39 -18 50 -25 11 -6 52 -25 90 -43 39 -17 90
-41 114 -52 27 -13 66 -21 103 -21 l60 -1 56 62 c32 35 67 75 79 90 12 16 65
81 118 147 53 65 100 127 106 137 5 10 30 34 56 54 42 32 52 35 110 35 57 0
78 -6 161 -46 54 -26 126 -60 162 -76 240 -111 498 -235 618 -297 39 -20 61
-41 90 -86 24 -36 26 -49 24 -126 0 -48 -10 -133 -22 -190 -22 -111 -37 -149
-110 -281 -26 -48 -191 -212 -239 -239 -20 -11 -54 -31 -76 -44 -22 -14 -51
-30 -65 -36 -14 -6 -48 -22 -76 -35 -28 -13 -59 -24 -68 -24 -9 0 -33 -8 -54
-18 -20 -11 -71 -25 -112 -33 -144 -27 -516 -6 -612 35 -21 9 -48 16 -60 16
-13 1 -41 8 -63 16 -22 9 -67 24 -100 34 -33 10 -91 31 -130 45 -38 15 -91 35
-117 44 -26 10 -53 22 -60 28 -7 6 -24 14 -38 18 -23 7 -100 43 -145 68 -11 6
-33 17 -50 24 -16 8 -37 19 -45 24 -8 5 -33 18 -55 29 -22 11 -60 33 -85 50
-25 16 -58 35 -75 43 -16 8 -36 21 -44 30 -7 10 -18 17 -23 17 -8 0 -93 55
-108 70 -3 3 -27 20 -55 39 -27 19 -72 54 -100 77 -27 22 -72 58 -100 79 -226
169 -579 545 -855 910 -72 95 -234 336 -279 415 -18 30 -36 62 -41 70 -13 21
-36 69 -55 110 -9 19 -25 53 -35 76 -11 23 -20 48 -20 55 0 8 -9 30 -19 50
-11 20 -23 54 -26 75 -4 22 -17 71 -29 109 -19 63 -21 93 -21 300 0 213 2 234
23 290 12 32 22 66 22 74 0 34 93 216 162 316 62 90 219 249 261 265 18 6 48
19 67 28 82 37 324 50 422 22z"/>
</g>
</svg>
